<svg width="50" height="50" viewBox="0 0 50 50" fill="none" xmlns="http://www.w3.org/2000/svg">
<path d="M39.9537 6.19375C35.9597 2.19961 30.6484 0 24.9995 0C19.3516 0 14.0403 2.19961 10.0463 6.19375C6.05225 10.1879 3.85254 15.499 3.85254 21.1479C3.85254 32.5747 14.6574 42.0792 20.4616 47.1853C21.2681 47.894 21.9651 48.5072 22.5197 49.0256C23.2148 49.6748 24.1072 49.9999 24.9996 49.9999C25.892 49.9999 26.7843 49.6748 27.4805 49.0256C28.0351 48.5071 28.7321 47.894 29.5386 47.1853C35.3428 42.0791 46.1476 32.5747 46.1476 21.1479C46.1474 15.499 43.9478 10.1879 39.9537 6.19375ZM24.9995 29.6683C19.8611 29.6683 15.6806 25.4877 15.6806 20.3483C15.6806 15.21 19.8611 11.0294 24.9995 11.0294C30.1389 11.0294 34.3194 15.21 34.3194 20.3483C34.3194 25.4877 30.1389 29.6683 24.9995 29.6683Z" fill="#FF7C48"/>
<path d="M46.1474 21.1479C46.1474 32.5747 35.3426 42.0792 29.5384 47.1853C28.7319 47.894 28.0348 48.5072 27.4803 49.0256C26.7842 49.6748 25.8918 49.9999 24.9994 49.9999V29.6683C30.1387 29.6683 34.3193 25.4877 34.3193 20.3483C34.3193 15.21 30.1387 11.0294 24.9994 11.0294V0C30.6483 0 35.9596 2.19961 39.9536 6.19375C43.9476 10.1879 46.1474 15.499 46.1474 21.1479Z" fill="#FF4C04"/>
</svg>
