<svg width="50" height="50" viewBox="0 0 50 50" fill="none" xmlns="http://www.w3.org/2000/svg">
<path d="M50 25C50 33.254 43.3333 40 35 40C26.746 40 20 33.254 20 25C20 16.746 26.6667 10 34.9206 10C43.3333 10 50 16.746 50 25Z" fill="#FFB600"/>
<path d="M35 10C43.254 10 50 16.746 50 25C50 33.254 43.3333 40 35 40C26.746 40 20 33.254 20 25" fill="#F7981D"/>
<path d="M35 10C43.254 10 50 16.746 50 25C50 33.254 43.3333 40 35 40" fill="#FF8500"/>
<path d="M14.8413 10C6.66667 10.0794 0 16.746 0 25C0 33.254 6.66667 40 15 40C18.8889 40 22.381 38.4921 25.0794 36.1111C25.6349 35.6349 26.1111 35.0794 26.5873 34.5238H23.4921C23.0952 34.0476 22.6984 33.4921 22.381 33.0159H27.6984C28.0159 32.5397 28.3333 31.9841 28.5714 31.4286H21.5079C21.2698 30.9524 21.0317 30.3968 20.873 29.8413H29.127C29.6032 28.3333 29.9206 26.746 29.9206 25.0794C29.9206 23.9683 29.7619 22.9365 29.6032 21.9048H20.3968C20.4762 21.3492 20.6349 20.873 20.7937 20.3175H29.0476C28.8889 19.7619 28.6508 19.2063 28.4127 18.7302H21.4286C21.6667 18.1746 21.9841 17.6984 22.3016 17.1429H27.619C27.3016 16.5873 26.9048 16.0317 26.4286 15.5556H23.4921C23.9683 15 24.4444 14.5238 25 14.0476C22.381 11.5873 18.8095 10.1587 14.9206 10.1587C14.9206 10 14.9206 10 14.8413 10Z" fill="#FF5050"/>
<path d="M0 25C0 33.2539 6.66667 40 15 40C18.8889 40 22.381 38.492 25.0794 36.1111C25.6349 35.6349 26.1111 35.0793 26.5873 34.5238H23.4921C23.0952 34.0476 22.6984 33.492 22.381 33.0158H27.6984C28.0159 32.5396 28.3333 31.9841 28.5714 31.4285H21.5079C21.2698 30.9523 21.0317 30.3968 20.873 29.8412H29.127C29.6032 28.3333 29.9206 26.746 29.9206 25.0793C29.9206 23.9682 29.7619 22.9365 29.6032 21.9047H20.3968C20.4762 21.3492 20.6349 20.873 20.7937 20.3174H29.0476C28.8889 19.7619 28.6508 19.2063 28.4127 18.7301H21.4286C21.6667 18.1746 21.9841 17.6984 22.3016 17.1428H27.619C27.3016 16.5873 26.9048 16.0317 26.4286 15.5555H23.4921C23.9683 15 24.4444 14.5238 25 14.0476C22.381 11.5873 18.8095 10.1587 14.9206 10.1587H14.8413" fill="#E52836"/>
<path d="M15 40C18.8889 40 22.381 38.492 25.0794 36.1111C25.6349 35.6349 26.1111 35.0793 26.5873 34.5238H23.4921C23.0952 34.0476 22.6984 33.492 22.381 33.0158H27.6984C28.0159 32.5396 28.3333 31.9841 28.5714 31.4285H21.5079C21.2698 30.9523 21.0318 30.3968 20.873 29.8412H29.127C29.6032 28.3333 29.9206 26.746 29.9206 25.0793C29.9206 23.9682 29.7619 22.9365 29.6032 21.9047H20.3968C20.4762 21.3492 20.6349 20.873 20.7937 20.3174H29.0476C28.8889 19.7619 28.6508 19.2063 28.4127 18.7301H21.4286C21.6667 18.1746 21.9841 17.6984 22.3016 17.1428H27.6191C27.3016 16.5873 26.9048 16.0317 26.4286 15.5555H23.4921C23.9683 15 24.4445 14.5238 25 14.0476C22.381 11.5873 18.8095 10.1587 14.9206 10.1587H14.8413" fill="#CB2026"/>
<path d="M20.3175 28.8093L20.5556 27.4601C20.4762 27.4601 20.3175 27.5395 20.1588 27.5395C19.6032 27.5395 19.5238 27.222 19.6032 27.0633L20.0794 24.2855H20.9524L21.1905 22.7776H20.3969L20.5556 21.8252H18.9683C18.9683 21.8252 18.0159 27.0633 18.0159 27.6982C18.0159 28.6506 18.5715 29.0474 19.2857 29.0474C19.7619 29.0474 20.1588 28.8887 20.3175 28.8093Z" fill="white"/>
<path d="M20.873 26.2694C20.873 28.4917 22.381 29.0472 23.6508 29.0472C24.8413 29.0472 25.3175 28.8091 25.3175 28.8091L25.6349 27.3012C25.6349 27.3012 24.7619 27.698 23.9683 27.698C22.2222 27.698 22.5397 26.4282 22.5397 26.4282H25.7937C25.7937 26.4282 26.0317 25.3964 26.0317 24.9996C26.0317 23.9679 25.4762 22.698 23.7302 22.698C22.0635 22.5393 20.873 24.2853 20.873 26.2694ZM23.6508 23.9679C24.5238 23.9679 24.3651 24.9996 24.3651 25.079H22.619C22.619 24.9996 22.7778 23.9679 23.6508 23.9679Z" fill="white"/>
<path d="M33.7302 28.8092L34.0476 27.0632C34.0476 27.0632 33.254 27.46 32.6984 27.46C31.5873 27.46 31.1111 26.587 31.1111 25.6346C31.1111 23.7299 32.0635 22.6981 33.1746 22.6981C33.9683 22.6981 34.6032 23.1743 34.6032 23.1743L34.8413 21.5077C34.8413 21.5077 33.8889 21.1108 33.0159 21.1108C31.1905 21.1108 29.3651 22.6981 29.3651 25.714C29.3651 27.6981 30.3175 29.0473 32.2222 29.0473C32.8571 29.0473 33.7302 28.8092 33.7302 28.8092Z" fill="white"/>
<path d="M11.5873 22.5396C10.4762 22.5396 9.68255 22.857 9.68255 22.857L9.44445 24.2062C9.44445 24.2062 10.1587 23.8888 11.1905 23.8888C11.746 23.8888 12.2222 23.9681 12.2222 24.4443C12.2222 24.7618 12.1429 24.8411 12.1429 24.8411C12.1429 24.8411 11.6667 24.8411 11.4286 24.8411C10.0794 24.8411 8.57144 25.3967 8.57144 27.2221C8.57144 28.6506 9.52382 28.9681 10.0794 28.9681C11.1905 28.9681 11.6667 28.2538 11.746 28.2538L11.6667 28.8887H13.0952L13.7302 24.5237C13.7302 22.6189 12.1429 22.5396 11.5873 22.5396ZM11.9048 26.111C11.9048 26.3491 11.746 27.6189 10.7937 27.6189C10.3175 27.6189 10.1587 27.2221 10.1587 26.984C10.1587 26.5872 10.3968 26.0316 11.5873 26.0316C11.8254 26.111 11.9048 26.111 11.9048 26.111Z" fill="white"/>
<path d="M15.2381 28.9677C15.6349 28.9677 17.6191 29.047 17.6191 26.9042C17.6191 24.92 15.7143 25.3169 15.7143 24.5232C15.7143 24.1264 16.0318 23.9677 16.5873 23.9677C16.8254 23.9677 17.6984 24.047 17.6984 24.047L17.9365 22.6184C17.9365 22.6184 17.381 22.4597 16.4286 22.4597C15.2381 22.4597 14.0476 22.9359 14.0476 24.5232C14.0476 26.3486 16.0318 26.1899 16.0318 26.9042C16.0318 27.3804 15.4762 27.4597 15.0794 27.4597C14.3651 27.4597 13.6508 27.2216 13.6508 27.2216L13.4127 28.6502C13.4921 28.8089 13.8889 28.9677 15.2381 28.9677Z" fill="white"/>
<path d="M46.9048 21.2695L46.5873 23.4124C46.5873 23.4124 45.9524 22.6187 45.0794 22.6187C43.6508 22.6187 42.381 24.3648 42.381 26.4283C42.381 27.6981 43.0159 29.0473 44.3651 29.0473C45.3175 29.0473 45.873 28.4124 45.873 28.4124L45.7937 28.9679H47.381L48.5715 21.3489L46.9048 21.2695ZM46.1905 25.4759C46.1905 26.3489 45.7937 27.46 44.9207 27.46C44.3651 27.46 44.0476 26.9838 44.0476 26.1902C44.0476 24.9203 44.6032 24.1267 45.3175 24.1267C45.873 24.1267 46.1905 24.5235 46.1905 25.4759Z" fill="white"/>
<path d="M2.93653 28.8886L3.88891 23.1743L4.04764 28.8886H5.15875L7.22224 23.1743L6.34922 28.8886H8.01589L9.28573 21.2695H6.66668L5.07938 25.9521L5.00002 21.2695H2.69843L1.42859 28.8886H2.93653Z" fill="white"/>
<path d="M27.5397 28.8887C28.0159 26.2697 28.0953 24.1268 29.2064 24.5236C29.3651 23.4919 29.6032 23.0951 29.7619 22.6982C29.7619 22.6982 29.6826 22.6982 29.4445 22.6982C28.7302 22.6982 28.1746 23.6506 28.1746 23.6506L28.3334 22.7776H26.8254L25.7937 28.9681H27.5397V28.8887Z" fill="white"/>
<path d="M37.381 22.5396C36.2698 22.5396 35.4762 22.857 35.4762 22.857L35.2381 24.2062C35.2381 24.2062 35.9524 23.8888 36.9841 23.8888C37.5397 23.8888 38.0159 23.9681 38.0159 24.4443C38.0159 24.7618 37.9365 24.8411 37.9365 24.8411C37.9365 24.8411 37.4603 24.8411 37.2222 24.8411C35.873 24.8411 34.3651 25.3967 34.3651 27.2221C34.3651 28.6506 35.3175 28.9681 35.873 28.9681C36.9841 28.9681 37.4603 28.2538 37.5397 28.2538L37.4603 28.8887H38.8889L39.5238 24.5237C39.6032 22.6189 37.9365 22.5396 37.381 22.5396ZM37.7778 26.111C37.7778 26.3491 37.6191 27.6189 36.6667 27.6189C36.1905 27.6189 36.0318 27.2221 36.0318 26.984C36.0318 26.5872 36.2698 26.0316 37.4603 26.0316C37.6984 26.111 37.6984 26.111 37.7778 26.111Z" fill="white"/>
<path d="M40.873 28.8887C41.3492 26.2697 41.4286 24.1268 42.5397 24.5236C42.6984 23.4919 42.9365 23.0951 43.0953 22.6982C43.0953 22.6982 43.0159 22.6982 42.7778 22.6982C42.0635 22.6982 41.508 23.6506 41.508 23.6506L41.6667 22.7776H40.1588L39.127 28.9681H40.873V28.8887Z" fill="white"/>
<path d="M17.8572 27.6982C17.8572 28.6506 18.4127 29.0474 19.127 29.0474C19.6826 29.0474 20.1588 28.8887 20.3175 28.8093L20.5556 27.4601C20.4762 27.4601 20.3175 27.5395 20.1588 27.5395C19.6032 27.5395 19.5238 27.222 19.6032 27.0633L20.0794 24.2855H20.9524L21.1905 22.7776H20.3969L20.5556 21.8252" fill="#DCE5E5"/>
<path d="M21.6667 26.2694C21.6667 28.4917 22.381 29.0472 23.6508 29.0472C24.8413 29.0472 25.3175 28.8091 25.3175 28.8091L25.6349 27.3012C25.6349 27.3012 24.7619 27.698 23.9683 27.698C22.2222 27.698 22.5397 26.4282 22.5397 26.4282H25.7937C25.7937 26.4282 26.0318 25.3964 26.0318 24.9996C26.0318 23.9679 25.4762 22.698 23.7302 22.698C22.0635 22.5393 21.6667 24.2853 21.6667 26.2694ZM23.6508 23.9679C24.5238 23.9679 24.6826 24.9996 24.6826 25.079H22.6191C22.6191 24.9996 22.7778 23.9679 23.6508 23.9679Z" fill="#DCE5E5"/>
<path d="M33.7302 28.8092L34.0476 27.0632C34.0476 27.0632 33.254 27.46 32.6984 27.46C31.5873 27.46 31.1111 26.587 31.1111 25.6346C31.1111 23.7299 32.0635 22.6981 33.1746 22.6981C33.9683 22.6981 34.6032 23.1743 34.6032 23.1743L34.8413 21.5077C34.8413 21.5077 33.8889 21.1108 33.0159 21.1108C31.1905 21.1108 30.1588 22.6981 30.1588 25.714C30.1588 27.6981 30.3175 29.0473 32.2222 29.0473C32.8572 29.0473 33.7302 28.8092 33.7302 28.8092Z" fill="#DCE5E5"/>
<path d="M9.44445 24.2855C9.44445 24.2855 10.1587 23.9681 11.1905 23.9681C11.746 23.9681 12.2222 24.0474 12.2222 24.5236C12.2222 24.8411 12.1429 24.9205 12.1429 24.9205C12.1429 24.9205 11.6667 24.9205 11.4286 24.9205C10.0794 24.9205 8.57144 25.476 8.57144 27.3014C8.57144 28.73 9.52382 29.0474 10.0794 29.0474C11.1905 29.0474 11.6667 28.3331 11.746 28.3331L11.6667 28.9681H13.0952L13.7302 24.603C13.7302 22.7776 12.1429 22.6982 11.5079 22.6982L9.44445 24.2855ZM12.6984 26.1109C12.6984 26.349 11.746 27.6189 10.7937 27.6189C10.3175 27.6189 10.1587 27.222 10.1587 26.9839C10.1587 26.5871 10.3968 26.0316 11.5873 26.0316C11.8254 26.1109 12.6984 26.1109 12.6984 26.1109Z" fill="#DCE5E5"/>
<path d="M13.4921 28.8089C13.4921 28.8089 13.9683 28.9677 15.3175 28.9677C15.7143 28.9677 17.6984 29.047 17.6984 26.9042C17.6984 24.92 15.7937 25.3169 15.7937 24.5232C15.7937 24.1264 16.1111 23.9677 16.6667 23.9677C16.9048 23.9677 17.7778 24.047 17.7778 24.047L18.0159 22.6184C18.0159 22.6184 17.4603 22.4597 16.5079 22.4597C15.3175 22.4597 14.9206 22.9359 14.9206 24.5232C14.9206 26.3486 16.1111 26.1899 16.1111 26.9042C16.1111 27.3804 15.5556 27.4597 15.1587 27.4597" fill="#DCE5E5"/>
<path d="M46.5873 23.4124C46.5873 23.4124 45.9524 22.6187 45.0794 22.6187C43.6508 22.6187 43.1746 24.3647 43.1746 26.4282C43.1746 27.6981 43.0159 29.0473 44.3651 29.0473C45.3175 29.0473 45.873 28.4123 45.873 28.4123L45.7937 28.9679H47.381L48.5714 21.3489L46.5873 23.4124ZM46.5079 25.4758C46.5079 26.3489 45.7937 27.46 44.9206 27.46C44.3651 27.46 44.0476 26.9838 44.0476 26.1901C44.0476 24.9203 44.6032 24.1266 45.3175 24.1266C45.873 24.1266 46.5079 24.5235 46.5079 25.4758Z" fill="#DCE5E5"/>
<path d="M2.93653 28.8886L3.88891 23.1743L4.04764 28.8886H5.15875L7.22224 23.1743L6.34922 28.8886H8.01589L9.28573 21.2695H7.3016L5.07938 25.9521L5.00002 21.2695H4.127L1.42859 28.8886H2.93653Z" fill="#DCE5E5"/>
<path d="M25.873 28.8887H27.5397C28.0159 26.2697 28.0952 24.1268 29.2064 24.5236C29.3651 23.4919 29.6032 23.0951 29.7619 22.6982C29.7619 22.6982 29.6825 22.6982 29.4444 22.6982C28.7302 22.6982 28.1746 23.6506 28.1746 23.6506L28.3333 22.7776" fill="#DCE5E5"/>
<path d="M35.2381 24.2855C35.2381 24.2855 35.9524 23.9681 36.9841 23.9681C37.5397 23.9681 38.0159 24.0474 38.0159 24.5236C38.0159 24.8411 37.9365 24.9205 37.9365 24.9205C37.9365 24.9205 37.4603 24.9205 37.2222 24.9205C35.873 24.9205 34.3651 25.476 34.3651 27.3014C34.3651 28.73 35.3175 29.0474 35.873 29.0474C36.9841 29.0474 37.4603 28.3331 37.5397 28.3331L37.4603 28.9681H38.8889L39.5238 24.603C39.5238 22.7776 37.9365 22.6982 37.3016 22.6982L35.2381 24.2855ZM38.4921 26.1109C38.4921 26.349 37.5397 27.6189 36.5873 27.6189C36.1111 27.6189 35.9524 27.222 35.9524 26.9839C35.9524 26.5871 36.1905 26.0316 37.381 26.0316C37.6984 26.1109 38.4921 26.1109 38.4921 26.1109Z" fill="#DCE5E5"/>
<path d="M39.2064 28.8887H40.873C41.3492 26.2697 41.4286 24.1268 42.5397 24.5236C42.6984 23.4919 42.9365 23.0951 43.0952 22.6982C43.0952 22.6982 43.0159 22.6982 42.7778 22.6982C42.0635 22.6982 41.5079 23.6506 41.5079 23.6506L41.6667 22.7776" fill="#DCE5E5"/>
</svg>
