<svg width="50" height="50" viewBox="0 0 50 50" fill="none" xmlns="http://www.w3.org/2000/svg">
<g clip-path="url(#clip0_19_122)">
<path d="M18.3333 32.1827L20.873 17.897H24.8413L22.381 32.1827H18.3333Z" fill="#3C58BF"/>
<path d="M18.3333 32.1827L21.5873 17.897H24.8413L22.381 32.1827H18.3333Z" fill="#293688"/>
<path d="M36.746 18.0556C35.9524 17.7381 34.6825 17.4207 33.0952 17.4207C29.127 17.4207 26.2698 19.4048 26.2698 22.2619C26.2698 24.4048 28.254 25.5159 29.8413 26.2302C31.4286 26.9445 31.9048 27.4207 31.9048 28.0556C31.9048 29.008 30.6349 29.4841 29.5238 29.4841C27.9365 29.4841 27.0635 29.2461 25.7143 28.6905L25.1587 28.4524L24.6032 31.7064C25.5556 32.1032 27.3016 32.5 29.127 32.5C33.3333 32.5 36.1111 30.5159 36.1111 27.5C36.1111 25.8334 35.0794 24.5635 32.6984 23.5318C31.2698 22.8175 30.3968 22.4207 30.3968 21.7064C30.3968 21.0714 31.1111 20.4365 32.6984 20.4365C34.0476 20.4365 35 20.6746 35.7143 20.9921L36.1111 21.1508L36.746 18.0556Z" fill="#3C58BF"/>
<path d="M36.746 18.0556C35.9524 17.7381 34.6825 17.4207 33.0952 17.4207C29.127 17.4207 26.9841 19.4048 26.9841 22.2619C26.9841 24.4048 28.254 25.5159 29.8413 26.2302C31.4286 26.9445 31.9048 27.4207 31.9048 28.0556C31.9048 29.008 30.6349 29.4841 29.5238 29.4841C27.9365 29.4841 27.0635 29.2461 25.7143 28.6905L25.1587 28.4524L24.6032 31.7064C25.5556 32.1032 27.3016 32.5 29.127 32.5C33.3333 32.5 36.1111 30.5159 36.1111 27.5C36.1111 25.8334 35.0794 24.5635 32.6984 23.5318C31.2698 22.8175 30.3968 22.4207 30.3968 21.7064C30.3968 21.0714 31.1111 20.4365 32.6984 20.4365C34.0476 20.4365 35 20.6746 35.7143 20.9921L36.1111 21.1508L36.746 18.0556Z" fill="#293688"/>
<path d="M43.5714 17.897C42.619 17.897 41.9047 17.9763 41.5079 18.9287L35.5555 32.1827H39.8413L40.6349 29.8017H45.7143L46.1905 32.1827H50L46.6667 17.897H43.5714ZM41.746 27.4208C41.9841 26.7065 43.3333 23.2144 43.3333 23.2144C43.3333 23.2144 43.6508 22.3414 43.8889 21.7859L44.127 23.1351C44.127 23.1351 44.9206 26.7065 45.0794 27.5001H41.746V27.4208Z" fill="#3C58BF"/>
<path d="M44.5238 17.897C43.5714 17.897 42.8571 17.9763 42.4603 18.9287L35.5555 32.1827H39.8413L40.6349 29.8017H45.7143L46.1905 32.1827H50L46.6667 17.897H44.5238ZM41.746 27.4208C42.0635 26.6271 43.3333 23.2144 43.3333 23.2144C43.3333 23.2144 43.6508 22.3414 43.8889 21.7859L44.127 23.1351C44.127 23.1351 44.9206 26.7065 45.0794 27.5001H41.746V27.4208Z" fill="#293688"/>
<path d="M11.0318 27.8969L10.6349 25.8335C9.92065 23.4525 7.61906 20.8335 5.07938 19.5636L8.6508 32.262H12.9365L19.3651 17.9763H15.0794L11.0318 27.8969Z" fill="#3C58BF"/>
<path d="M11.0318 27.8969L10.6349 25.8335C9.92065 23.4525 7.61906 20.8335 5.07938 19.5636L8.6508 32.262H12.9365L19.3651 17.9763H15.873L11.0318 27.8969Z" fill="#293688"/>
<path d="M0 17.897L0.714286 18.0557C5.79365 19.2462 9.28571 22.2621 10.6349 25.8335L9.20635 19.0874C8.96825 18.1351 8.25397 17.897 7.38095 17.897H0Z" fill="#FFBC00"/>
<path d="M0 17.897C5.07937 19.0874 9.28571 22.1827 10.6349 25.7541L9.28571 20.1192C9.04762 19.1668 8.25397 18.6113 7.38095 18.6113L0 17.897Z" fill="#F7981D"/>
<path d="M0 17.897C5.07937 19.0874 9.28571 22.1827 10.6349 25.7541L9.68254 22.6589C9.44444 21.7065 9.12698 20.7541 8.01587 20.3573L0 17.897Z" fill="#ED7C00"/>
<path d="M15 27.4206L12.3016 24.7222L11.0317 27.7381L10.7143 25.754C9.99999 23.373 7.6984 20.754 5.15872 19.4841L8.73015 32.1825H13.0159L15 27.4206Z" fill="#051244"/>
<path d="M22.3809 32.1825L18.9682 28.6904L18.3333 32.1825H22.3809Z" fill="#051244"/>
<path d="M31.5079 27.262C31.8254 27.5794 31.9841 27.8175 31.9048 28.135C31.9048 29.0874 30.6349 29.5636 29.5238 29.5636C27.9365 29.5636 27.0635 29.3255 25.7143 28.7699L25.1587 28.5318L24.6032 31.7858C25.5556 32.1826 27.3016 32.5794 29.127 32.5794C31.6667 32.5794 33.7302 31.8651 34.9206 30.5953L31.5079 27.262Z" fill="#051244"/>
<path d="M36.1111 32.1827H39.8413L40.6349 29.8018H45.7143L46.1905 32.1827H50L48.6508 26.3891L43.8889 21.7859L44.127 23.0557C44.127 23.0557 44.9206 26.6272 45.0794 27.4208H41.746C42.0635 26.6272 43.3333 23.2145 43.3333 23.2145C43.3333 23.2145 43.6508 22.3414 43.8889 21.7859" fill="#051244"/>
</g>
<defs>
<clipPath id="clip0_19_122">
<rect width="50" height="50" fill="white"/>
</clipPath>
</defs>
</svg>
