<svg width="68" height="75" viewBox="0 0 68 75" fill="none" xmlns="http://www.w3.org/2000/svg">
<path fill-rule="evenodd" clip-rule="evenodd" d="M5.54599 0.815392C5.21512 1.45376 5.51448 2.48909 6.95349 5.64337C13.2558 19.4085 14.637 32.546 10.9502 43.3445C10.2622 45.3508 9.59519 47.3088 9.46389 47.7005C9.28008 48.2369 9.60044 48.4676 10.9239 48.6982C12.5347 49.1515 14.0696 49.8496 15.4773 50.7689C17.9877 52.3299 18.6284 52.5499 20.8605 52.5553C23.0925 52.5606 23.7175 52.346 25.9128 50.9459C28.9694 49.0094 30.6395 48.489 33.6751 48.489C36.7107 48.489 38.4018 49.0255 41.4321 50.9459C43.6274 52.3353 44.3101 52.5553 46.4897 52.5553C48.6692 52.5553 49.3519 52.3353 51.542 50.9459C54.6196 48.9986 56.2687 48.489 59.4198 48.489C60.7538 48.489 61.8409 48.3442 61.8409 48.1672C61.8409 47.9901 61.279 45.721 60.591 43.1246C57.3821 30.9795 52.44 21.7206 45.245 14.3713C35.9544 4.91381 24.1587 0 10.7348 0C6.49133 0 5.92938 0.0858308 5.54599 0.815392ZM4.68468 54.4596C3.7033 54.8433 2.74568 55.2875 1.81715 55.79L0 56.6966L1.15016 58.3059L2.66796 60.3819C2.94105 60.7467 3.38746 60.6931 4.38532 60.1674C6.07643 59.2822 9.97858 59.2447 11.4544 60.103C18.807 64.3945 22.5621 64.6788 27.9873 61.3368C29.9672 60.1191 31.443 59.5397 32.9713 59.3842C34.967 59.175 35.4502 59.3305 38.927 61.2403C42.6505 63.3002 42.7661 63.3002 46.4897 63.3002C49.8929 63.3002 50.4811 63.1768 52.3718 62.061C57.5921 58.9818 59.3253 58.6224 62.3504 59.9957C63.7841 60.6448 64.3723 60.7414 64.6507 60.3712L66.179 58.2791L67.3291 56.6698L65.1233 55.4789C63.1907 54.4382 62.4029 54.2772 59.3148 54.2719C55.838 54.2719 55.6384 54.3202 52.1092 56.305C49.2259 57.9143 48.06 58.3435 46.5002 58.3435C44.9404 58.3435 43.7639 57.9143 40.8807 56.305C37.3514 54.3255 37.1466 54.2665 33.6751 54.2665C30.2036 54.2665 29.9988 54.3255 26.4695 56.305C21.5642 59.0569 20.1672 59.0569 15.2987 56.3425C12.1476 54.583 11.3493 54.3309 8.71813 54.1968C7.36988 54.1034 6.01553 54.1773 4.68468 54.4167V54.4596ZM2.74148 66.6637C1.89061 67.0171 1.09034 67.4863 0.36238 68.0584C0.236335 68.2569 0.829798 69.2547 1.67535 70.2686L3.21415 72.1086L4.61115 71.3951C6.91673 70.2739 10.6456 70.7567 13.6549 72.6558C16.4804 74.4314 19.8994 75.3004 22.4518 74.882C24.1902 74.603 26.9999 73.3853 29.8832 71.6633C31.0489 71.0354 32.359 70.7407 33.6751 70.8104C34.9909 70.7455 36.2995 71.0458 37.4617 71.6794C40.3397 73.3853 43.1547 74.603 44.8931 74.8981C47.4455 75.3165 50.8592 74.4475 53.69 72.6718C56.7046 70.7728 60.4334 70.2686 62.739 71.4434L64.136 72.1569L65.6748 70.3169C66.5203 69.303 67.1086 68.3052 66.9878 68.1067C66.2598 67.5346 65.4595 67.0654 64.6087 66.712C62.9386 65.9127 61.7411 65.682 59.257 65.682C55.9536 65.682 55.901 65.682 49.8509 69.0187C48.186 69.9306 44.725 69.9414 43.1285 69.0187C37.4984 65.8322 37.0048 65.6552 33.6751 65.6552C30.3454 65.6552 30.2771 65.6552 24.2217 68.9972C22.5568 69.9092 19.0958 69.9199 17.4993 68.9972C11.8798 65.8161 11.3756 65.6337 8.09315 65.6391C5.60901 65.6391 4.41683 65.8698 2.74148 66.6691" fill="#E9D15C"/>
</svg>
