<svg width="72" height="100" viewBox="0 0 72 100" fill="none" xmlns="http://www.w3.org/2000/svg">
<g clip-path="url(#clip0_3_4)">
<path fill-rule="evenodd" clip-rule="evenodd" d="M5.54622 0.798319C5.21534 1.42332 5.51471 2.43698 6.95378 5.52521C13.2563 19.0021 14.6376 31.8645 10.9506 42.437C10.2626 44.4013 9.59559 46.3183 9.46429 46.7017C9.28046 47.2269 9.60084 47.4527 10.9244 47.6786C11.8592 47.8361 13.9076 48.729 15.4779 49.7059C17.9884 51.2342 18.6292 51.4496 20.8613 51.4548C23.0935 51.4601 23.7185 51.25 25.9139 49.8792C28.9706 47.9832 30.6408 47.4737 33.6765 47.4737C36.7122 47.4737 38.4034 47.999 41.4338 49.8792C43.6292 51.2395 44.312 51.4548 46.4916 51.4548C48.6712 51.4548 49.354 51.2395 51.5441 49.8792C54.6218 47.9727 56.271 47.4737 59.4223 47.4737C60.7563 47.4737 61.8435 47.3319 61.8435 47.1586C61.8435 46.9853 61.2815 44.7637 60.5935 42.2216C57.3845 30.3309 52.4422 21.2658 45.2468 14.0704C35.9559 4.81093 24.1597 0 10.7353 0C6.4916 0 5.92962 0.0840336 5.54622 0.798319ZM4.68487 53.3193C3.70375 53.6856 2.74606 54.1118 1.81723 54.5956L0 55.5095L1.15021 57.0851L2.66807 59.1177C2.94118 59.4748 3.38761 59.4223 4.3855 58.9076C6.07668 58.041 9.97899 58.0042 11.4548 58.8445C18.8078 63.0462 22.563 63.3246 27.9884 60.0525C29.9685 58.8603 31.4443 58.2931 32.9727 58.1408C34.9685 57.9359 35.4517 58.0882 38.9286 59.958C42.6523 61.9643 42.7679 61.9958 46.4916 61.9958C49.895 61.9958 50.4832 61.875 52.374 60.7826C57.5945 57.7679 59.3277 57.416 62.3529 58.7605C63.7868 59.396 64.375 59.4906 64.6534 59.1282L66.1817 57.0798L67.3319 55.5042L65.1261 54.3382C63.1933 53.3193 62.4055 53.1618 59.3172 53.1565C55.8403 53.1565 55.6408 53.2038 52.1113 55.1471C49.2279 56.7227 48.062 57.1429 46.5021 57.1429C44.9422 57.1429 43.7658 56.7227 40.8824 55.1471C37.3529 53.209 37.1481 53.1513 33.6765 53.1513C30.2048 53.1513 30 53.209 26.4706 55.1471C21.5651 57.8414 20.1681 57.8414 15.2994 55.1838C12.1481 53.4611 11.3498 53.2143 8.71849 53.083C7.37019 52.9918 6.01581 53.0641 4.68487 53.2983V53.3193ZM2.7416 65.2889C1.89049 65.6345 1.09014 66.0939 0.362395 66.6544C0.236345 66.8487 0.829832 67.8256 1.67542 68.8183L3.21429 70.6198L4.61134 69.9212C6.91702 68.8025 10.646 69.2752 13.6555 71.1345C16.4811 72.8729 19.9002 73.7237 22.4527 73.3141C24.1912 73.041 27.0011 71.8487 29.8845 70.1628C31.0508 69.5497 32.3605 69.2613 33.6765 69.3277C34.9921 69.2671 36.3 69.5609 37.4632 70.1786C40.3414 71.8487 43.1565 73.041 44.895 73.3298C47.4475 73.7395 50.8613 72.8887 53.6922 71.1502C56.7069 69.291 60.4359 68.7973 62.7416 69.9475L64.1387 70.646L65.6775 68.8445C66.5231 67.8519 67.1113 66.875 66.9905 66.6807C66.2628 66.1201 65.4625 65.6608 64.6113 65.3151C62.9412 64.5326 61.7437 64.3067 59.2595 64.3067C55.9559 64.3067 55.9034 64.3067 49.8529 67.5735C48.188 68.4664 44.7269 68.4769 43.1303 67.5735C37.5 64.4538 37.0063 64.2805 33.6765 64.2805C30.3466 64.2805 30.2784 64.2805 24.2227 67.5525C22.5578 68.4454 19.0966 68.4559 17.5 67.5525C11.8803 64.438 11.376 64.2595 8.09349 64.2647C5.60924 64.2647 4.41702 64.4906 2.7416 65.2731" fill="#E9D15C"/>
<path d="M6.75946 99.8949C5.806 99.9009 4.85428 99.8129 3.91807 99.6323C3.18315 99.495 2.45976 99.3019 1.75421 99.0546C1.45902 98.965 1.1725 98.849 0.898113 98.708L0.514709 98.1828C0.588239 97.8834 0.703785 97.2374 0.8666 96.25C1.02942 95.2626 1.13446 94.4328 1.18173 93.7552L5.1208 93.4769C5.09831 93.8054 5.14204 94.135 5.2494 94.4463C5.35677 94.7576 5.52557 95.0441 5.7458 95.2889C5.97861 95.5065 6.25321 95.6746 6.55295 95.783C6.85269 95.8913 7.17132 95.9376 7.4895 95.9191C7.90103 95.9391 8.31186 95.8674 8.69223 95.709C8.8171 95.6669 8.92596 95.5874 9.00396 95.4812C9.08197 95.375 9.12534 95.2473 9.12815 95.1155C9.11714 94.9039 9.04811 94.6993 8.92861 94.5242C8.80911 94.3491 8.64375 94.2103 8.45063 94.1229C7.75061 93.7455 7.02179 93.4241 6.27101 93.1618C5.85646 93.0349 5.44961 92.8841 5.05252 92.7101C3.8661 92.2557 2.77571 91.5822 1.83824 90.7248C1.4377 90.3159 1.12597 89.8286 0.92262 89.2936C0.719267 88.7586 0.628671 88.1873 0.656516 87.6155C0.645066 86.4727 1.04809 85.3644 1.79097 84.4958C2.66084 83.5281 3.77452 82.8116 5.01576 82.4212C6.57922 81.9075 8.21803 81.6607 9.86345 81.6912C10.761 81.6876 11.6577 81.7455 12.5473 81.8645C13.3824 81.98 14.0546 82.0956 14.5536 82.2164C15.0525 82.3372 15.3729 82.4107 15.5147 82.458L15.8929 83.1197C15.8228 83.3789 15.6968 83.9776 15.5147 84.916C15.3225 85.89 15.1823 86.8735 15.0945 87.8624L11.4653 88.104L11.0819 87.8624V87.584C11.0954 87.3409 11.0553 87.0978 10.9645 86.8718C10.8738 86.6459 10.7346 86.4426 10.5567 86.2763C10.1583 85.9422 9.64721 85.7731 9.12815 85.8036C8.72844 85.7896 8.332 85.8801 7.97794 86.0662C7.84374 86.1315 7.7304 86.233 7.65062 86.3591C7.57084 86.4853 7.52778 86.6312 7.52626 86.7805C7.53786 86.992 7.60712 87.1963 7.72655 87.3713C7.84598 87.5463 8.01102 87.6852 8.20378 87.7731C8.90243 88.1471 9.63376 88.4565 10.3887 88.6975L11.1502 88.9811C12.4407 89.4264 13.6439 90.0929 14.7059 90.9506C15.1547 91.353 15.5068 91.8515 15.736 92.409C15.9652 92.9664 16.0655 93.5685 16.0294 94.1702C16.0393 95.0276 15.8159 95.8716 15.3829 96.6117C14.9499 97.3519 14.3237 97.9603 13.5714 98.3718C11.9328 99.3872 9.65687 99.8932 6.7437 99.8897L6.75946 99.8949ZM25.5567 99.8949C23.0007 99.8949 21.159 99.452 20.0315 98.5662C18.9041 97.6803 18.3386 96.2395 18.3351 94.2437V86.0819C18.3658 85.6817 18.3139 85.2795 18.1828 84.9002C18.1103 84.7982 18.0113 84.7178 17.8966 84.6679C17.7818 84.6179 17.6556 84.6002 17.5315 84.6166L16.7332 84.6534L16.6649 84.5483L16.98 81.9223C17.3057 81.9223 17.9674 81.9223 18.9653 81.959C19.9632 81.9958 21.0662 81.9958 22.3477 81.9958C23.0672 81.9958 23.834 81.9958 24.6534 81.938C25.4727 81.8803 26.0189 81.8908 26.3235 81.8908L26.0084 84.6796C25.6478 84.662 25.2937 84.78 25.0158 85.0105C24.7929 85.2659 24.6747 85.5961 24.6849 85.9349L24.5063 93.7447C24.475 94.3587 24.6466 94.966 24.9948 95.4727C25.1589 95.6853 25.3724 95.8548 25.6167 95.9664C25.861 96.078 26.1289 96.1285 26.3971 96.1134C26.637 96.1345 26.8786 96.1053 27.1066 96.0275C27.3345 95.9497 27.5436 95.8251 27.7206 95.6618C28.0383 95.2169 28.1856 94.6726 28.1355 94.1281L28.0987 86.0819C28.1459 85.6943 28.1046 85.3011 27.9779 84.9317C27.9249 84.828 27.842 84.7426 27.74 84.6864C27.638 84.6302 27.5215 84.6059 27.4055 84.6166L26.812 84.6534L26.7069 84.5483L27.0536 81.9223C27.3109 81.9223 27.7941 81.9223 28.5032 81.959C29.2122 81.9958 29.8897 81.9958 30.541 81.9958C31.5179 81.9958 32.4212 81.9958 33.2458 81.959C34.0704 81.9223 34.6218 81.9223 34.9055 81.9223L34.6639 84.6166C34.28 84.7221 33.915 84.8869 33.5819 85.105C33.4968 85.1854 33.4306 85.2835 33.3879 85.3925C33.3452 85.5015 33.3272 85.6185 33.3351 85.7353V93.125C33.3351 95.3589 32.6838 97.0448 31.3813 98.1828C30.0788 99.3207 28.1373 99.8914 25.5567 99.8949ZM50.2101 100C49.4924 100.045 48.7789 99.8611 48.1723 99.4748C47.5711 98.9721 47.1189 98.3147 46.8645 97.5735L45.2889 93.6344H43.729V95.063C43.7072 95.4705 43.7533 95.8787 43.8655 96.271C43.9093 96.3875 43.9795 96.4923 44.0706 96.5771C44.1618 96.6618 44.2714 96.7243 44.3908 96.7594C44.8444 96.8649 45.3068 96.9282 45.7721 96.9485L45.9454 97.1954L45.6303 99.6691C45.2363 99.6691 44.5273 99.6691 43.5294 99.6166C42.5315 99.5641 41.5599 99.5641 40.6985 99.5641C39.7742 99.5641 38.7518 99.6043 37.6313 99.6849L35.4727 99.8424L35.7143 97.1639C36.2685 97.1229 36.7865 96.8732 37.1639 96.4653C37.4668 95.975 37.6065 95.4014 37.563 94.8267V85.7353C37.5877 85.4359 37.5333 85.1353 37.4055 84.8634C37.3464 84.7808 37.2671 84.7147 37.1751 84.6714C37.0831 84.6282 36.9816 84.6093 36.8803 84.6166L35.8298 84.6534L35.5147 84.3067L35.8666 81.9695L40.0683 82.0063C41.0452 82.0063 42.1096 81.9818 43.2616 81.9328C44.4118 81.8855 45.2048 81.854 45.646 81.8277C48.4471 81.8277 50.5287 82.2584 51.8908 83.1197C52.5585 83.5284 53.1026 84.1106 53.4653 84.8044C53.8279 85.4981 53.9953 86.2774 53.9496 87.0588C53.9496 89.1597 52.8204 90.8683 50.562 92.1849L52.1691 94.6639C52.577 95.3085 53.064 95.8996 53.6187 96.4233C53.9505 96.785 54.4019 97.0145 54.8897 97.0693L55.2416 97.5578L54.958 99.7164L50.2101 100ZM45.9191 90.1313C46.4419 89.9666 46.8971 89.6367 47.2164 89.1912C47.4271 88.6939 47.5206 88.1548 47.4895 87.6155C47.5139 87.3229 47.4608 87.0289 47.3354 86.7634C47.21 86.4978 47.0168 86.27 46.7752 86.1029C46.073 85.7345 45.2813 85.5707 44.4905 85.6302C44.4262 85.6219 44.3608 85.627 44.2984 85.6451C44.2361 85.6631 44.1781 85.6938 44.1282 85.7353C44.0439 85.8842 44.0004 86.0527 44.0021 86.2237C43.9356 86.945 43.8778 88.153 43.8288 89.8477L45.9191 90.1313ZM55.7878 99.8214L56.0714 97.1061C56.6131 97.0832 57.125 96.8517 57.5 96.4601C57.8006 95.9365 57.9344 95.3337 57.8834 94.7321L57.9202 86.0819C57.9478 85.683 57.9015 85.2823 57.7836 84.9002C57.7218 84.8002 57.6324 84.7202 57.5262 84.6699C57.4199 84.6196 57.3014 84.6011 57.1849 84.6166L56.4548 84.6534L56.0714 84.2332L56.3498 81.9328C56.8382 81.9328 57.7626 81.9328 59.1229 81.9695C60.4832 82.0063 61.917 82.0063 63.4296 82.0063C65.0123 82.0063 66.5879 81.9765 68.1565 81.917C69.7321 81.8592 70.8666 81.7805 71.5861 81.6912L71.9748 82.1429C71.9275 82.4895 71.8435 83.2458 71.728 84.4065C71.6124 85.5672 71.5284 86.6649 71.4811 87.6891L67.1586 87.9307L67.1954 86.9905C67.2212 86.7871 67.1963 86.5805 67.123 86.389C67.0497 86.1975 66.9302 86.0271 66.7752 85.8929C66.3146 85.6538 65.7952 85.5517 65.2784 85.5987C65.0371 85.5727 64.7936 85.6203 64.5798 85.7353C64.5139 85.8046 64.4641 85.8876 64.4341 85.9784C64.4042 86.0692 64.3947 86.1656 64.4065 86.2605L64.2332 89.4118L66.5336 89.4485C67.0903 89.4485 67.6786 89.4485 68.2931 89.396C68.9076 89.3435 69.3435 89.333 69.5693 89.3067L69.9475 89.7269L69.5693 93.1092C69.333 93.1092 68.8971 93.1092 68.2616 93.0725C67.6261 93.0357 66.9485 93.041 66.25 93.041C65.8202 93.0408 65.3906 93.0636 64.9632 93.1092C64.5221 93.1565 64.2332 93.1775 64.0914 93.1775V94.5378C64.0503 94.9809 64.1283 95.4269 64.3172 95.8298C64.4429 95.9519 64.5949 96.0433 64.7616 96.097C64.9283 96.1508 65.1051 96.1654 65.2784 96.1397C65.6314 96.1458 65.9839 96.1105 66.3288 96.0347C66.6387 95.9716 66.854 95.9244 66.938 95.8981L67.4632 96.4548L67.0431 99.6691C66.6702 99.6691 65.9927 99.6691 65.0368 99.6271C64.0809 99.5851 63.1565 99.5956 62.3004 99.5956C60.9699 99.5956 59.6499 99.6306 58.3403 99.7006L55.8088 99.8372L55.7878 99.8214Z" fill="black"/>
</g>
<defs>
<clipPath id="clip0_3_4">
<rect width="71.9748" height="100" fill="white"/>
</clipPath>
</defs>
</svg>
