<svg width="35" height="35" viewBox="0 0 35 35" fill="none" xmlns="http://www.w3.org/2000/svg">
<path d="M28.7386 0H6.26145C2.80889 0 0 2.80889 0 6.26145V28.7386C0 32.1911 2.80889 35 6.26145 35H28.7386C32.1911 35 35 32.1911 35 28.7386V6.26145C35 2.80889 32.1911 0 28.7386 0ZM32.9492 28.7386C32.9492 31.0603 31.0603 32.9492 28.7386 32.9492H6.26145C3.93969 32.9492 2.05078 31.0603 2.05078 28.7386V6.26145C2.05078 3.93969 3.93969 2.05078 6.26145 2.05078H28.7386C31.0603 2.05078 32.9492 3.93969 32.9492 6.26145V28.7386Z" fill="#C4C4C4"/>
<path d="M29.5812 7.68817H13.9637C13.5344 6.41293 12.3282 5.49158 10.91 5.49158C9.49179 5.49158 8.28559 6.41293 7.85622 7.68817H5.41846C4.85217 7.68817 4.39307 8.14727 4.39307 8.71356C4.39307 9.27985 4.85217 9.73895 5.41846 9.73895H7.85629C8.28565 11.0142 9.49186 11.9355 10.91 11.9355C12.3282 11.9355 13.5344 11.0142 13.9638 9.73895H29.5812C30.1475 9.73895 30.6066 9.27985 30.6066 8.71356C30.6066 8.14727 30.1475 7.68817 29.5812 7.68817ZM10.91 9.88476C10.2642 9.88476 9.73877 9.35935 9.73877 8.71356C9.73877 8.06777 10.2642 7.54236 10.91 7.54236C11.5558 7.54236 12.0812 8.06777 12.0812 8.71356C12.0812 9.35935 11.5558 9.88476 10.91 9.88476Z" fill="#C4C4C4"/>
<path d="M29.5812 16.4746H27.1433C26.714 15.1994 25.5077 14.278 24.0896 14.278C22.6715 14.278 21.4653 15.1994 21.0359 16.4746H5.41846C4.85217 16.4746 4.39307 16.9337 4.39307 17.5C4.39307 18.0663 4.85217 18.5254 5.41846 18.5254H21.0359C21.4653 19.8006 22.6715 20.722 24.0897 20.722C25.5078 20.722 26.714 19.8006 27.1434 18.5254H29.5812C30.1475 18.5254 30.6066 18.0663 30.6066 17.5C30.6066 16.9337 30.1475 16.4746 29.5812 16.4746ZM24.0897 18.6712C23.4439 18.6712 22.9185 18.1458 22.9185 17.5C22.9185 16.8542 23.4439 16.3288 24.0897 16.3288C24.7354 16.3288 25.2609 16.8542 25.2609 17.5C25.2609 18.1458 24.7354 18.6712 24.0897 18.6712Z" fill="#C4C4C4"/>
<path d="M29.5812 25.261H18.357C17.9276 23.9858 16.7214 23.0645 15.3032 23.0645C13.885 23.0645 12.6788 23.9858 12.2495 25.261H5.41846C4.85217 25.261 4.39307 25.7201 4.39307 26.2864C4.39307 26.8527 4.85217 27.3118 5.41846 27.3118H12.2495C12.6788 28.5871 13.885 29.5084 15.3032 29.5084C16.7214 29.5084 17.9276 28.5871 18.357 27.3118H29.5812C30.1475 27.3118 30.6066 26.8527 30.6066 26.2864C30.6066 25.7201 30.1475 25.261 29.5812 25.261ZM15.3032 27.4577C14.6574 27.4577 14.132 26.9323 14.132 26.2865C14.132 25.6407 14.6574 25.1153 15.3032 25.1153C15.949 25.1153 16.4744 25.6406 16.4744 26.2864C16.4744 26.9322 15.949 27.4577 15.3032 27.4577Z" fill="#C4C4C4"/>
</svg>
